<svg width="51" height="51" viewBox="0 0 51 51" fill="none" xmlns="http://www.w3.org/2000/svg">
<path d="M28.18 19.45L33.22 31.9L37.96 19.45H43.12L33.04 42.55L22.96 19.45H28.18Z" fill="black"/>
<path d="M27.76 28.78C27.5 29.06 27.09 29.35 26.53 29.65C25.97 29.93 25.32 30.19 24.58 30.43C23.86 30.67 23.12 30.86 22.36 31C21.6 31.16 20.88 31.24 20.2 31.24C17.82 31.24 15.75 30.78 13.99 29.86C12.23 28.94 10.87 27.68 9.91 26.08C8.97 24.48 8.5 22.65 8.5 20.59C8.5 18.57 8.8 16.82 9.4 15.34C10.02 13.84 10.85 12.6 11.89 11.62C12.95 10.62 14.16 9.88 15.52 9.4C16.9 8.92 18.34 8.68 19.84 8.68C21.26 8.68 22.56 8.84 23.74 9.16C24.92 9.46 25.92 9.84 26.74 10.3L25.33 14.35C24.97 14.15 24.49 13.95 23.89 13.75C23.29 13.55 22.68 13.39 22.06 13.27C21.44 13.13 20.89 13.06 20.41 13.06C18.03 13.06 16.2 13.66 14.92 14.86C13.64 16.04 13 17.82 13 20.2C13 21.58 13.31 22.77 13.93 23.77C14.55 24.77 15.41 25.54 16.51 26.08C17.63 26.62 18.9 26.89 20.32 26.89C20.94 26.89 21.51 26.85 22.03 26.77C22.55 26.67 22.99 26.52 23.35 26.32V23.65H19.54V19.45H27.76V28.78Z" fill="black"/>
<rect x="1.5" y="1.5" width="48" height="48" stroke="black" stroke-width="3"/>
</svg>
