<?xml version="1.0" encoding="UTF-8"?> <svg xmlns="http://www.w3.org/2000/svg" width="120" height="53" viewBox="0 0 120 53"><g fill="none" fill-rule="evenodd"><g fill-rule="nonzero"><g><g fill="#0084C2"><path d="M.023 0v46.414c.053 1.463.596 2.67 1.63 3.62 1.033.951 2.313 1.38 3.84 1.284l.615-.066 52.1-5.998c1.112-.174 1.937-.63 2.474-1.366.537-.736.814-1.508.829-2.316V10.378c-.037-1.044-.36-1.887-.97-2.529-.913-.963-2.06-1.151-2.27-1.179-.14-.018-.283-.034-.428-.049L.023 0z" transform="translate(-126 -32) translate(126 32) translate(0 .023)"></path></g><g fill="#FFF" transform="translate(-126 -32) translate(126 32) translate(12.972 13.52)"><path d="M0.628 8.401H5.603V27.623H0.628z"></path><ellipse cx="3.103" cy="3.107" rx="3.103" ry="3.107"></ellipse></g><path fill="#FFF" d="M40.24 42.68c-9.205 0-16.668-7.471-16.668-16.686 0-9.216 7.463-16.686 16.668-16.686 9.206 0 16.668 7.47 16.668 16.686 0 9.215-7.462 16.685-16.668 16.685zm-.011-5.61c6.104 0 11.053-4.953 11.053-11.065 0-6.111-4.949-11.065-11.053-11.065-6.105 0-11.054 4.954-11.054 11.065 0 6.112 4.949 11.066 11.054 11.066zM2.325 9.994L10.275 10.563 10.275 3.404 2.325 2.577zM2.325 19.728L10.275 19.961 10.275 12.794 2.325 12.31zM12.6 10.725L19.574 11.222 19.574 4.371 12.6 3.647z" transform="translate(-126 -32) translate(126 32)"></path><path fill="#0084C2" d="M71.234 31.636c.386.877.848 1.708 1.485 2.434.824.94 1.833 1.572 3.08 1.8.953.172 1.905.176 2.822-.168 1.12-.422 1.943-1.16 2.304-2.32.265-.852.212-1.695-.185-2.503-.467-.948-1.148-1.714-2.045-2.286-.717-.457-1.49-.809-2.27-1.146-.918-.395-1.843-.776-2.754-1.189-.926-.421-1.811-.917-2.602-1.563-1.216-.993-2.18-2.178-2.77-3.636-.409-1.011-.532-2.067-.44-3.15.18-2.136 1.235-3.795 2.895-5.115 1.255-1 2.69-1.599 4.284-1.822 2.008-.281 3.942.017 5.828.722 2.003.748 3.607 1.997 4.843 3.72l.057.08c-1.669 1.28-2.944 2.272-3.826 2.977-.064-.062-1.291-1.21-2.028-1.686-.737-.477-1.495-.804-2.322-.868-.442-.035-.871-.038-1.304 0-.326.03-.65.094-.974.175-.676.17-1.28.502-1.764 1.01-.71.743-.785 1.857-.177 2.687.13.177.28.347.45.486.287.235.588.456.902.655.8.505 1.656.905 2.525 1.276 1.262.54 2.512 1.107 3.698 1.801 1.207.707 2.297 1.552 3.186 2.635 1.056 1.286 1.752 2.736 1.968 4.383.411 3.138-.55 5.787-2.953 7.9-1.382 1.218-2.997 1.955-4.837 2.151-4.255.454-8.189-1.281-10.533-5.007-.528-.837-.959-1.72-1.322-2.637-.017-.042-.115-.306-.295-.793l4.898-1.385c.081.174.14.301.176.382zM109.948 34.6v.002c.281.621.583 1.114.956 1.53.539.598 1.176.968 1.933 1.102.669.118 1.244.094 1.77-.099.724-.266 1.194-.714 1.403-1.368.161-.505.126-.992-.11-1.46-.295-.583-.723-1.05-1.286-1.4-.401-.249-.817-.448-1.489-.731-.162-.069-.295-.124-.585-.244l-.03-.012c-.603-.25-.891-.371-1.234-.523-.704-.312-1.287-.648-1.795-1.052-.886-.705-1.531-1.517-1.926-2.468-.28-.674-.38-1.396-.312-2.166.122-1.407.814-2.564 2.03-3.506.866-.673 1.864-1.084 2.982-1.237 1.33-.182 2.658-.012 4.016.483 1.375.5 2.491 1.34 3.354 2.51l.002.005.037.05.135.186-.184.137c-1.117.835-1.971 1.483-2.56 1.942l-.158.122-.145-.136-.047-.044-.11-.097c-.108-.097-.225-.2-.344-.3-.33-.28-.617-.504-.823-.633-.507-.32-.972-.496-1.45-.532-.296-.023-.57-.023-.836 0-.188.016-.386.052-.617.108-.423.104-.786.304-1.072.596-.396.405-.436 1.004-.099 1.453.084.111.171.204.26.275.197.157.39.293.583.413.462.284.966.528 1.66.816 1.07.447 1.8.788 2.504 1.19.892.51 1.617 1.084 2.197 1.773.761.903 1.226 1.895 1.372 2.982.288 2.142-.4 3.946-2.058 5.369-.974.835-2.104 1.328-3.37 1.46-2.994.311-5.687-.913-7.278-3.376-.347-.538-.645-1.121-.905-1.761-.013-.03-.077-.2-.2-.524l-.09-.239 3.715-1.024.084.175.12.254zM94.3 48.835h-5.065l5.777-13.534L86.2 20.897h5.421l5.594 9.181 3.859-9.18h4.944L94.301 48.834z" transform="translate(-126 -32) translate(126 32)"></path></g></g></g></svg> 