<?xml version="1.0" encoding="UTF-8"?> <svg xmlns="http://www.w3.org/2000/svg" id="Layer_1" data-name="Layer 1" viewBox="0 0 228 116"><defs><style>.cls-1{fill:#4b9cd3;}.cls-2{fill:#004263;}.cls-3{fill:#96cf9c;}</style></defs><path class="cls-1" d="M6,106.1h.84l2.72,6.29H8.79l-.65-1.52H4.76l-.65,1.51H3.29Zm1.81,4.07-1.3-3c0-.08-.06-.16-.1-.25a1.86,1.86,0,0,1-.1.25l-1.29,3Z"></path><path class="cls-1" d="M17.67,109.26a3,3,0,0,1-3.33,3.14H12.27l0-6.29h2.06A3,3,0,0,1,17.67,109.26Zm-3.32-2.43H13v4.85h1.31a2.43,2.43,0,1,0,0-4.85Z"></path><path class="cls-1" d="M19,107.18a.43.43,0,0,1-.46-.46.47.47,0,0,1,.93,0A.43.43,0,0,1,19,107.18Zm-.36.92h.72v4.31h-.71Z"></path><path class="cls-1" d="M22.72,112.42H22l-1.9-4.31h.8l1.48,3.51,1.48-3.5h.8Z"></path><path class="cls-1" d="M25.71,107.19a.43.43,0,0,1-.46-.45.44.44,0,0,1,.47-.46.44.44,0,0,1,.46.46A.43.43,0,0,1,25.71,107.19Zm-.36.92h.72v4.31h-.72Z"></path><path class="cls-1" d="M28.72,108a3.26,3.26,0,0,1,1.53.37v.68a3,3,0,0,0-1.48-.41c-.47,0-1,.16-1,.58,0,.93,2.73.54,2.73,2.09,0,.9-.85,1.21-1.78,1.21a3.3,3.3,0,0,1-1.67-.42v-.7a3.11,3.11,0,0,0,1.63.46c.62,0,1.1-.1,1.1-.53,0-.91-2.74-.55-2.74-2.1C27.08,108.35,27.92,108,28.72,108Z"></path><path class="cls-1" d="M31.81,107.21a.46.46,0,1,1,0-.92.46.46,0,0,1,0,.92Zm-.36.91h.71v4.31h-.72Z"></path><path class="cls-1" d="M35.42,108a2.26,2.26,0,1,1-2.3,2.26A2.2,2.2,0,0,1,35.42,108Zm0,.68A1.58,1.58,0,1,0,37,110.29,1.5,1.5,0,0,0,35.42,108.7Z"></path><path class="cls-1" d="M40.87,108a1.7,1.7,0,0,1,1.79,1.76v2.66h-.72v-2.57a1.07,1.07,0,0,0-1.15-1.19,1.76,1.76,0,0,0-1.41.86v2.89h-.72v-4.31h.64v.64A2,2,0,0,1,40.87,108Z"></path><path class="cls-1" d="M48,108a2.27,2.27,0,1,1-2.3,2.26A2.21,2.21,0,0,1,48,108Zm0,.68a1.58,1.58,0,1,0,1.58,1.59A1.5,1.5,0,0,0,48,108.72Z"></path><path class="cls-1" d="M51.5,108.82h-.81v-.67h.81v-.52A1.4,1.4,0,0,1,53,106.07a3.14,3.14,0,0,1,1.07.2v.67a2.13,2.13,0,0,0-.9-.2c-.52,0-1,.13-1,.92v.5h1.62v.66H52.21v3.65h-.72Z"></path><path class="cls-1" d="M59.49,106.09a3.78,3.78,0,0,1,1.76.42v.75a3.11,3.11,0,0,0-1.64-.46,2.54,2.54,0,1,0,0,5.07,2.85,2.85,0,0,0,1.66-.46v.76a4,4,0,0,1-1.83.42,3.25,3.25,0,1,1,0-6.5Z"></path><path class="cls-1" d="M66,111.92a.92.92,0,0,0,.33-.06v.59a1.65,1.65,0,0,1-.54.09.74.74,0,0,1-.78-.52,2.54,2.54,0,0,1-1.68.57,1.35,1.35,0,0,1-1.52-1.31c0-1.11,1-1.45,1.95-1.45A5.32,5.32,0,0,1,65,110v-.16c0-.64-.44-1.08-1.23-1.08a3.93,3.93,0,0,0-1.57.32v-.7a5.31,5.31,0,0,1,1.64-.28,1.68,1.68,0,0,1,1.87,1.83v1.69C65.71,111.85,65.85,111.92,66,111.92Zm-2.52,0a2,2,0,0,0,1.47-.62v-.79a5.34,5.34,0,0,0-1.09-.13c-.63,0-1.31.19-1.31.81S63,112,63.52,112Z"></path><path class="cls-1" d="M67.74,112.49H67v-6.55h.72Z"></path><path class="cls-1" d="M73.25,112.5H72.6v-.72a2.23,2.23,0,0,1-1.74.83,2.27,2.27,0,0,1,0-4.53,2.1,2.1,0,0,1,1.66.76v-2.62h.72ZM71,108.75a1.6,1.6,0,0,0,0,3.19,1.74,1.74,0,0,0,1.59-1.06v-1.07A1.73,1.73,0,0,0,71,108.75Z"></path><path class="cls-1" d="M79.35,112.51h-.78l-1.16-3.33-1.17,3.33h-.78L74,108.19h.76l1.1,3.52,1.24-3.52h.65L79,111.72l1.12-3.52h.76Z"></path><path class="cls-1" d="M83.33,108.1a2,2,0,0,1,2,2.58H81.9c.09.9.91,1.28,1.78,1.28a3,3,0,0,0,1.42-.34v.7a3.57,3.57,0,0,1-1.53.31,2.19,2.19,0,0,1-2.39-2.27A2.15,2.15,0,0,1,83.33,108.1Zm0,.67a1.38,1.38,0,0,0-1.48,1.28h2.8A1.19,1.19,0,0,0,83.38,108.77Z"></path><path class="cls-1" d="M87.05,112.53h-.72V106h.72Z"></path><path class="cls-1" d="M89,112.53h-.72V106h.72Z"></path><path class="cls-1" d="M99.09,112.55h-.75v-4.86l-2.25,3.37h-.47l-2.25-3.38v4.86h-.75v-6.29h.64l2.59,3.89,2.6-3.88h.65Z"></path><path class="cls-1" d="M102.25,108.14a2,2,0,0,1,2,2.58h-3.43c.09.91.91,1.29,1.78,1.29a3.1,3.1,0,0,0,1.42-.35v.7a3.45,3.45,0,0,1-1.53.31,2.19,2.19,0,0,1-2.39-2.27A2.14,2.14,0,0,1,102.25,108.14Zm0,.66a1.38,1.38,0,0,0-1.48,1.28h2.8A1.19,1.19,0,0,0,102.3,108.8Z"></path><path class="cls-1" d="M105.24,108.25h.64v.57a2.08,2.08,0,0,1,1.48-.68,1.54,1.54,0,0,1,1.38.73,2.21,2.21,0,0,1,1.57-.72,1.59,1.59,0,0,1,1.64,1.76v2.66h-.72v-2.68a1,1,0,0,0-1-1.08,1.68,1.68,0,0,0-1.26.71,2.47,2.47,0,0,1,0,.39v2.65h-.72v-2.67a1,1,0,0,0-1-1.08,1.76,1.76,0,0,0-1.32.78v3h-.72Z"></path><path class="cls-1" d="M115.15,108.16a2.26,2.26,0,1,1-2.31,2.26A2.19,2.19,0,0,1,115.15,108.16Zm0,.68a1.58,1.58,0,1,0,1.58,1.58A1.5,1.5,0,0,0,115.14,108.84Z"></path><path class="cls-1" d="M120.89,108.18v.72a1.61,1.61,0,0,0-1.78,1v2.68h-.72v-4.31H119V109A2,2,0,0,1,120.89,108.18Z"></path><path class="cls-1" d="M122,107.36a.43.43,0,0,1-.47-.46.44.44,0,0,1,.47-.45.46.46,0,1,1,0,.91Zm-.36.92h.71v4.31h-.72Z"></path><path class="cls-1" d="M127.41,112a1.28,1.28,0,0,0,.33-.06v.58a1.66,1.66,0,0,1-.54.1.77.77,0,0,1-.79-.52,2.53,2.53,0,0,1-1.68.57,1.35,1.35,0,0,1-1.51-1.31c0-1.12,1-1.46,2-1.46a6.67,6.67,0,0,1,1.19.14v-.15c0-.65-.44-1.08-1.23-1.08a4,4,0,0,0-1.57.32v-.7a4.88,4.88,0,0,1,1.65-.28,1.68,1.68,0,0,1,1.87,1.83v1.69C127.08,112,127.22,112,127.41,112Zm-2.52,0a2,2,0,0,0,1.47-.63v-.79a6.16,6.16,0,0,0-1.09-.12c-.63,0-1.32.18-1.32.81S124.41,112.08,124.89,112.08Z"></path><path class="cls-1" d="M129.11,112.6h-.72V106h.72Z"></path><path class="cls-1" d="M137.91,112.61h-.75v-2.79h-3.73v2.8h-.76l0-6.29h.75v2.78h3.72v-2.77h.75Z"></path><path class="cls-1" d="M141.23,108.2a2.27,2.27,0,1,1-2.31,2.26A2.2,2.2,0,0,1,141.23,108.2Zm0,.68a1.59,1.59,0,1,0,1.58,1.59A1.51,1.51,0,0,0,141.22,108.88Z"></path><path class="cls-1" d="M145.86,108.21a3.42,3.42,0,0,1,1.53.37v.68a3,3,0,0,0-1.49-.4c-.46,0-1,.15-1,.57,0,.93,2.74.54,2.74,2.1,0,.89-.85,1.21-1.78,1.21a3.41,3.41,0,0,1-1.67-.43v-.7a3.09,3.09,0,0,0,1.63.46c.61,0,1.1-.09,1.1-.53,0-.9-2.75-.55-2.74-2.09C144.22,108.56,145.05,108.21,145.86,108.21Z"></path><path class="cls-1" d="M151,108.22a2.26,2.26,0,0,1,0,4.52,2.1,2.1,0,0,1-1.67-.75v2.62h-.71v-6.29h.64V109A2.22,2.22,0,0,1,151,108.22Zm-.08.66a1.74,1.74,0,0,0-1.59,1.06V111a1.73,1.73,0,0,0,1.59,1.06,1.6,1.6,0,0,0,0-3.2Z"></path><path class="cls-1" d="M154.43,107.42a.46.46,0,1,1,.47-.46A.44.44,0,0,1,154.43,107.42Zm-.36.91h.72v4.31h-.72Z"></path><path class="cls-1" d="M157.05,108.34h1.72V109H157v2.23c0,.65.29.85.92.85a2.74,2.74,0,0,0,1-.19v.66a3.52,3.52,0,0,1-1.16.2,1.29,1.29,0,0,1-1.43-1.4V109h-.8v-.66h.81V107l.71-.18Z"></path><path class="cls-1" d="M163.47,112.09a1,1,0,0,0,.33-.06v.58a1.44,1.44,0,0,1-.54.1.76.76,0,0,1-.79-.52,2.53,2.53,0,0,1-1.68.57,1.35,1.35,0,0,1-1.51-1.31c0-1.12,1-1.45,1.95-1.45a5.86,5.86,0,0,1,1.19.13V110c0-.65-.44-1.08-1.23-1.08a4,4,0,0,0-1.57.32v-.7a5.38,5.38,0,0,1,1.65-.28,1.68,1.68,0,0,1,1.87,1.83v1.69C163.14,112,163.28,112.09,163.47,112.09Zm-2.52,0a2.05,2.05,0,0,0,1.47-.62v-.79a5.34,5.34,0,0,0-1.09-.13c-.63,0-1.31.19-1.32.81S160.47,112.14,161,112.14Z"></path><path class="cls-1" d="M165.17,112.66h-.72v-6.55h.72Z"></path><path class="cls-1" d="M166.44,112h.77l-.68,2.06H166Z"></path><path class="cls-1" d="M171.41,112.67h-.75v-6.28h.75Z"></path><path class="cls-1" d="M175,108.26a1.7,1.7,0,0,1,1.79,1.76v2.66h-.72v-2.57a1.07,1.07,0,0,0-1.16-1.18,1.71,1.71,0,0,0-1.4.85v2.9h-.72v-4.31h.65V109A2,2,0,0,1,175,108.26Z"></path><path class="cls-1" d="M180,108.27a2.45,2.45,0,0,1,1.33.35v.7a2.13,2.13,0,0,0-1.24-.39,1.6,1.6,0,1,0,0,3.2,2.58,2.58,0,0,0,1.3-.35v.72a3,3,0,0,1-1.4.29,2.18,2.18,0,0,1-2.31-2.24A2.22,2.22,0,0,1,180,108.27Z"></path><path class="cls-1" d="M184.29,108.28a2.26,2.26,0,1,1-2.3,2.26A2.2,2.2,0,0,1,184.29,108.28Zm0,.68a1.58,1.58,0,1,0,1.58,1.58A1.5,1.5,0,0,0,184.29,109Z"></path><path class="cls-1" d="M190,108.3V109a1.62,1.62,0,0,0-1.79,1v2.68h-.72v-4.31h.64v.76A2,2,0,0,1,190,108.3Z"></path><path class="cls-1" d="M193.12,108.29a2.27,2.27,0,0,1,0,4.53,2.1,2.1,0,0,1-1.67-.76v2.62h-.72V108.4h.65v.72A2.23,2.23,0,0,1,193.12,108.29ZM193,109a1.73,1.73,0,0,0-1.59,1.05v1.08a1.73,1.73,0,0,0,1.59,1.06,1.6,1.6,0,0,0,0-3.19Z"></path><path class="cls-1" d="M198.23,108.3a2.27,2.27,0,1,1-2.31,2.26A2.2,2.2,0,0,1,198.23,108.3Zm0,.68a1.58,1.58,0,1,0,1.58,1.59A1.5,1.5,0,0,0,198.22,109Z"></path><path class="cls-1" d="M204,108.33v.72a1.62,1.62,0,0,0-1.79,1v2.69h-.72v-4.31h.65v.76A2,2,0,0,1,204,108.33Z"></path><path class="cls-1" d="M208.44,112.17a1.2,1.2,0,0,0,.33-.06v.58a1.66,1.66,0,0,1-.54.1.76.76,0,0,1-.79-.52,2.53,2.53,0,0,1-1.68.57,1.35,1.35,0,0,1-1.51-1.31c0-1.12,1-1.46,1.95-1.46a6.57,6.57,0,0,1,1.19.14v-.15c0-.65-.43-1.08-1.22-1.08a4,4,0,0,0-1.58.32v-.7a4.77,4.77,0,0,1,1.64-.28,1.68,1.68,0,0,1,1.87,1.83v1.69C208.11,112.1,208.25,112.17,208.44,112.17Zm-2.52,0a2,2,0,0,0,1.47-.63v-.79a6.16,6.16,0,0,0-1.09-.12c-.63,0-1.31.18-1.31.81S205.44,112.22,205.92,112.22Z"></path><path class="cls-1" d="M210.37,108.43h1.73v.67h-1.72v2.23c0,.66.29.85.92.86a2.44,2.44,0,0,0,1-.2v.66a3.43,3.43,0,0,1-1.16.2,1.29,1.29,0,0,1-1.42-1.39v-2.36h-.81v-.66h.81v-1.34l.7-.18Z"></path><path class="cls-1" d="M214.82,108.33a2,2,0,0,1,2,2.58h-3.43c.09.91.9,1.29,1.77,1.29a3,3,0,0,0,1.42-.35v.7a3.42,3.42,0,0,1-1.53.32,2.19,2.19,0,0,1-2.38-2.27A2.14,2.14,0,0,1,214.82,108.33Zm0,.66a1.38,1.38,0,0,0-1.47,1.29h2.79A1.19,1.19,0,0,0,214.86,109Z"></path><path class="cls-1" d="M222,112.76h-.64V112a2.22,2.22,0,0,1-1.75.82,2.26,2.26,0,0,1,0-4.52,2.1,2.1,0,0,1,1.67.76v-2.63h.72Zm-2.3-3.76a1.6,1.6,0,0,0,0,3.2,1.76,1.76,0,0,0,1.6-1.06v-1.07A1.75,1.75,0,0,0,219.74,109Z"></path><path class="cls-2" d="M28.56,30V2.78H9.89v7.5H20.23V29c0,4.39-3.39,5.73-7.56,5.73a16,16,0,0,1-8-2.11v7.77a25.4,25.4,0,0,0,10.05,2C22.12,42.39,28.56,39.12,28.56,30Z"></path><path class="cls-2" d="M74.44,22.22C74.44,11.67,67.55,2,53.77,2S33.1,11.67,33.1,22.22,40,42.45,53.77,42.45,74.44,32.78,74.44,22.22Zm-32.84,0c0-6.83,4-12.5,12.17-12.5s12.11,5.67,12.11,12.5S61.82,34.73,53.77,34.73,41.6,29.06,41.6,22.22Z"></path><path class="cls-2" d="M87.58,21.61c0-1.77,0-3.72-.17-5.33l18.12,25.39h7.83V2.78H105V22.84c0,1.77,0,3.72.16,5.33L87.08,2.78H79.25V41.67h8.33Z"></path><path class="cls-2" d="M132.87,2.78,117,41.67h8.61l2.89-7.28h17.78l2.84,7.28h8.61L141.87,2.78ZM131.09,27.5l5.39-13.94a12.81,12.81,0,0,0,.89-3.06,17.17,17.17,0,0,0,.84,3.06l5.44,13.94Z"></path><path class="cls-2" d="M168,13c0-2.39,2.11-3.56,6.33-3.62a20.64,20.64,0,0,1,12,3.45V5a26.58,26.58,0,0,0-12.61-3C166,2,159.48,5.56,159.48,13.06c0,13.78,21.29,11,21.29,18.33,0,2.78-2.78,3.73-7.28,3.73A24.86,24.86,0,0,1,159.71,31v8a29.83,29.83,0,0,0,14.39,3.5c8.17,0,15.17-2.72,15.17-11.45C189.27,17.17,168,19.67,168,13Z"></path><polygon class="cls-2" points="30.38 65.88 12.93 65.88 12.93 50.21 4.6 50.21 4.6 89.11 12.93 89.11 12.93 73.44 30.38 73.44 30.38 89.11 38.72 89.11 38.72 50.21 30.38 50.21 30.38 65.88"></polygon><rect class="cls-2" x="45.69" y="50.21" width="8.33" height="38.89"></rect><polygon class="cls-2" points="69.34 50.21 61.01 50.21 61.01 89.11 88.4 89.11 88.4 81.61 69.34 81.61 69.34 50.21"></polygon><polygon class="cls-2" points="100.91 50.21 92.57 50.21 92.57 89.11 119.97 89.11 119.97 81.61 100.91 81.61 100.91 50.21"></polygon><path class="cls-3" d="M140.34,67.59h-3V62h-6.27v5.64h-3v-14h3v5.64h6.27V53.59h3Z"></path><path class="cls-3" d="M149.8,53.32c5,0,7.44,3.47,7.44,7.27s-2.48,7.28-7.44,7.28-7.44-3.48-7.44-7.28S144.84,53.32,149.8,53.32Zm0,2.77a4.16,4.16,0,0,0-4.38,4.5,4.37,4.37,0,1,0,8.74,0A4.16,4.16,0,0,0,149.8,56.09Z"></path><path class="cls-3" d="M163.75,53.32a9.57,9.57,0,0,1,4.54,1.07v2.8A7.4,7.4,0,0,0,164,56c-1.52,0-2.28.44-2.28,1.3,0,2.42,7.66,1.52,7.66,6.5,0,3.14-2.52,4.12-5.46,4.12a10.69,10.69,0,0,1-5.17-1.26V63.75a8.91,8.91,0,0,0,4.95,1.48c1.62,0,2.62-.34,2.62-1.34,0-2.62-7.65-1.64-7.65-6.6C158.64,54.59,161,53.32,163.75,53.32Z"></path><path class="cls-3" d="M182.39,58.29c0,3.62-2.66,4.7-6,4.7h-2.28v4.6h-3v-14h5.28C179.73,53.59,182.39,54.67,182.39,58.29Zm-5.9-2.06h-2.42v4.12h2.42c1.54,0,2.84-.42,2.84-2.06S178,56.23,176.49,56.23Z"></path><path class="cls-3" d="M186.88,67.59h-3v-14h3Z"></path><path class="cls-3" d="M200.22,56.29h-4.3v11.3h-3V56.29h-4.3v-2.7h11.58Z"></path><path class="cls-3" d="M204.26,53.59h3.24l5.69,14h-3.1l-1-2.62h-6.39l-1,2.62h-3.1Zm3.88,8.9-2-5a6.18,6.18,0,0,1-.3-1.1,4.66,4.66,0,0,1-.32,1.1l-1.94,5Z"></path><path class="cls-3" d="M217.75,64.89h6.86v2.7h-9.86v-14h3Z"></path><path class="cls-3" d="M137.94,86.15l-1.14-1.06a7.87,7.87,0,0,1-4.54,1.34c-2.95,0-4.87-1.56-4.87-3.73,0-1.88,1.36-3,2.78-3.82a4.93,4.93,0,0,1-1.56-3.18c0-2.2,2-3.82,4.69-3.82,2.4,0,4.22,1.42,4.22,3.5s-1.82,3.14-3.48,4l2.56,2.48a4.78,4.78,0,0,0,.66-2.5H140a7,7,0,0,1-1.56,4.25l2.68,2.58Zm-5.3-2.05a4.47,4.47,0,0,0,2.38-.66l-3.19-3c-.86.48-1.58,1.08-1.58,2S131.11,84.1,132.64,84.1Zm.6-10a1.78,1.78,0,0,0-2,1.62,3,3,0,0,0,1.16,2c1.19-.56,2.43-1.24,2.43-2.28C134.86,74.68,134.3,74.12,133.24,74.12Z"></path><path class="cls-3" d="M153.74,71.88a9,9,0,0,1,4,.9v2.86a5.84,5.84,0,0,0-3.5-1.1c-2.46,0-4.94,1.4-4.94,4.78,0,3.08,2.5,4.43,4.94,4.43a5.4,5.4,0,0,0,3.6-1.15v2.93a9.31,9.31,0,0,1-4.06.9c-3.74,0-7.56-2.24-7.56-7.11C146.24,74.2,150,71.88,153.74,71.88Z"></path><path class="cls-3" d="M162.57,83.45h6.86v2.7h-9.86v-14h3Z"></path><path class="cls-3" d="M174.19,86.15h-3v-14h3Z"></path><path class="cls-3" d="M176.69,72.16h2.82L186,81.3c0-.58-.06-1.28-.06-1.92V72.16h3v14h-2.82L179.63,77c0,.58.06,1.28.06,1.92v7.21h-3Z"></path><path class="cls-3" d="M194.46,86.15h-3v-14h3Z"></path><path class="cls-3" d="M204,71.88a9,9,0,0,1,4,.9v2.86a5.84,5.84,0,0,0-3.5-1.1c-2.46,0-4.94,1.4-4.94,4.78,0,3.08,2.5,4.43,4.94,4.43a5.4,5.4,0,0,0,3.6-1.15v2.93a9.31,9.31,0,0,1-4.06.9c-3.74,0-7.56-2.24-7.56-7.11C196.5,74.2,200.26,71.88,204,71.88Z"></path></svg> 