<svg width="82" height="27" viewBox="0 0 82 27" fill="none" xmlns="http://www.w3.org/2000/svg">
<g clip-path="url(#clip0_2_7369)">
<path d="M24.6014 0.525358L17.0426 6.03746C16.5178 6.4965 16.3092 6.36809 16.4905 5.70217L18.2789 2.25406C18.5464 1.33116 18.015 1.31162 17.685 1.4329C17.5746 1.47384 17.4529 1.53463 17.3262 1.6038L7.69246 6.1837C6.4474 6.86575 3.87873 8.10037 2.51318 10.1748L8.34484 9.70656L10.2993 9.23278L16.5521 13.9816L17.1472 24.228C21.1286 21.5724 22.097 12.6092 24.8442 4.15305C24.8442 4.15305 25.5293 1.9104 25.8632 0.547844C25.8219 0.145094 25.6693 0.00769043 25.4792 0.00769043C25.1832 0.00769043 24.7968 0.341276 24.6014 0.525358Z" fill="url(#paint0_linear_2_7369)"/>
<mask id="mask0_2_7369" style="mask-type:alpha" maskUnits="userSpaceOnUse" x="-1" y="6" width="84" height="21">
<path d="M-0.0313164 16.2123L-0.0334277 16.2697C-0.27351 21.93 3.81951 26.7019 9.79428 26.9699C15.7687 27.2382 20.3082 22.7965 20.5484 17.1358L20.5508 17.0789C20.7909 11.4184 16.6979 6.64633 10.7234 6.37835C10.5516 6.37075 10.3808 6.36687 10.2114 6.36687C4.49089 6.36687 0.20198 10.7148 -0.0313164 16.2123ZM5.46495 16.6814V16.6347C5.46495 13.8307 7.41909 11.541 10.2364 11.541C13.0544 11.541 15.0541 13.8775 15.0541 16.6814V16.7284C15.0541 19.5323 13.0998 21.8227 10.2821 21.8227C7.46448 21.8227 5.46495 19.4855 5.46495 16.6814Z" fill="url(#paint1_linear_2_7369)"/>
<path d="M23.8943 16.2123L23.8919 16.2697C23.6516 21.93 27.7448 26.7019 33.7196 26.9699C39.6941 27.2382 44.2336 22.7965 44.4738 17.1358L44.4761 17.0789C44.7163 11.4184 40.6235 6.64633 34.6487 6.37835C34.4769 6.37075 34.3061 6.36687 34.1367 6.36687C28.4162 6.36687 24.1274 10.7148 23.8943 16.2123ZM29.3903 16.6814V16.6347C29.3903 13.8307 31.3442 11.541 34.1621 11.541C36.9797 11.541 38.9792 13.8775 38.9792 16.6814V16.7284C38.9792 19.5323 37.0252 21.8227 34.2076 21.8227C31.3899 21.8227 29.3903 19.4855 29.3903 16.6814Z" fill="url(#paint2_linear_2_7369)"/>
<path d="M45.9956 6.6556V7.79995C45.9956 9.76004 47.546 11.3538 49.4518 11.3538H55.5694C57.8714 11.3538 58.355 12.5993 58.355 13.6436V13.6984C58.355 15.1147 57.3431 15.9604 55.6491 15.9604H48.5917C47.6944 15.9604 46.9647 16.7108 46.9647 17.6336V26.7065H51.9325V20.5764H54.4857L57.5757 25.3213C58.1398 26.1887 59.0833 26.7065 60.0991 26.7065H64.3247L59.6162 19.6283L59.9144 19.4738C62.1787 18.3018 63.3757 16.2292 63.3757 13.4789V13.425C63.3757 11.5128 62.7794 9.88907 61.6514 8.73014C60.3318 7.3727 58.3483 6.6556 55.9152 6.6556H45.9956Z" fill="url(#paint3_linear_2_7369)"/>
<path d="M64.7466 6.6556V8.12082C64.7466 9.94862 66.1928 11.4356 67.9701 11.4356H70.8996V26.7065H75.8673V11.4356H82.0206V9.86581C82.0206 8.096 80.6207 6.6556 78.8997 6.6556H64.7466Z" fill="url(#paint4_linear_2_7369)"/>
</mask>
<g mask="url(#mask0_2_7369)">
<rect x="-2.99561" y="3.82959" width="114.763" height="37.7234" fill="#F4F9FF"/>
</g>
</g>
<defs>
<linearGradient id="paint0_linear_2_7369" x1="11.2328" y1="14.0743" x2="24.8576" y2="-0.776309" gradientUnits="userSpaceOnUse">
<stop stop-color="#D3E8FF"/>
<stop offset="1" stop-color="#F4F9FF"/>
</linearGradient>
<linearGradient id="paint1_linear_2_7369" x1="2.50636" y1="14.0232" x2="61.939" y2="33.241" gradientUnits="userSpaceOnUse">
<stop stop-color="#707B82"/>
<stop offset="0.939876" stop-color="#383E42"/>
<stop offset="1" stop-color="#383E42"/>
</linearGradient>
<linearGradient id="paint2_linear_2_7369" x1="4.86934" y1="6.6499" x2="64.3019" y2="25.8676" gradientUnits="userSpaceOnUse">
<stop stop-color="#707B82"/>
<stop offset="0.939876" stop-color="#383E42"/>
<stop offset="1" stop-color="#383E42"/>
</linearGradient>
<linearGradient id="paint3_linear_2_7369" x1="6.69094" y1="1.08066" x2="66.1238" y2="20.2985" gradientUnits="userSpaceOnUse">
<stop stop-color="#707B82"/>
<stop offset="0.939876" stop-color="#383E42"/>
<stop offset="1" stop-color="#383E42"/>
</linearGradient>
<linearGradient id="paint4_linear_2_7369" x1="8.96494" y1="-5.95209" x2="68.3981" y2="13.2658" gradientUnits="userSpaceOnUse">
<stop stop-color="#707B82"/>
<stop offset="0.939876" stop-color="#383E42"/>
<stop offset="1" stop-color="#383E42"/>
</linearGradient>
<clipPath id="clip0_2_7369">
<rect width="82" height="27" fill="white"/>
</clipPath>
</defs>
</svg>
