<svg width="163" height="75" viewBox="0 0 163 75" fill="none" xmlns="http://www.w3.org/2000/svg">
<path d="M0 64.0162H3.69885V74.2282H5.85182V64.0162H9.55068V62.1367H0V64.0162Z" fill="#010101"/>
<path d="M14.8015 62.1367H12.6548V74.2219H14.8015V62.1367Z" fill="#010101"/>
<path d="M17.9058 64.0162H21.6046V74.2282H23.7576V64.0162H27.4564V62.1367H17.9058V64.0162Z" fill="#010101"/>
<path d="M33.3213 62.1367L28.0703 74.2219H30.4736L31.7879 70.8576H36.6071L37.9277 74.2219H40.381L35.1801 62.1367H33.3213ZM32.4701 69.1034L34.1913 64.6991L35.9186 69.1034H32.4701Z" fill="#010101"/>
<path d="M143.93 62.1367L138.679 74.2219H141.082L142.396 70.8576H147.215L148.536 74.2219H150.989L145.789 62.1367H143.93ZM143.079 69.1034L144.8 64.6991L146.527 69.1034H143.079Z" fill="#010101"/>
<path d="M51.7713 71.1897H51.74L46.126 62.1367H43.2783V74.2282H45.4313V64.8871H45.4626L51.1955 74.2282H53.9243V62.1367H51.7713V71.1897Z" fill="#010101"/>
<path d="M60.4333 62.1367H58.2866V74.2219H60.4333V62.1367Z" fill="#010101"/>
<path d="M72.2684 69.7049C72.2684 70.0557 72.2245 70.4065 72.1307 70.7574C72.0368 71.1019 71.8866 71.4152 71.68 71.6846C71.4672 71.9603 71.1919 72.1795 70.8476 72.3487C70.5034 72.5178 70.0716 72.6055 69.5584 72.6055C69.0452 72.6055 68.6196 72.5178 68.2691 72.3487C67.9249 72.1795 67.6432 71.954 67.4367 71.6846C67.2239 71.4089 67.0737 71.1019 66.9861 70.7574C66.8922 70.4128 66.8484 70.062 66.8484 69.7049V62.1367H64.7017V69.7863C64.7017 70.513 64.8268 71.1709 65.0709 71.7598C65.315 72.3487 65.6592 72.8436 66.0911 73.2508C66.5292 73.6581 67.0424 73.9776 67.637 74.1969C68.2253 74.4161 68.8699 74.5289 69.5646 74.5289C70.2593 74.5289 70.8977 74.4161 71.4923 74.1969C72.0806 73.9776 72.5938 73.6581 73.0256 73.2508C73.4575 72.8436 73.8017 72.3424 74.0458 71.7598C74.2961 71.1709 74.4213 70.5193 74.4213 69.7863V62.1367H72.2746V69.7049H72.2684Z" fill="#010101"/>
<path d="M85.2301 70.726H85.1801L82.0445 62.1367H78.6836V74.2282H80.7302V64.5112H80.7615L84.379 74.2282H85.881L89.5486 64.5112H89.5799V74.2282H91.7141V62.1367H88.3344L85.2301 70.726Z" fill="#010101"/>
<path d="M108.5 68.2013C108.156 67.9381 107.774 67.7314 107.354 67.5685C106.941 67.4119 106.541 67.2678 106.153 67.1425C105.809 67.0422 105.496 66.9357 105.214 66.8355C104.932 66.7353 104.688 66.6162 104.488 66.4784C104.288 66.3406 104.131 66.1777 104.019 65.9835C103.906 65.7892 103.85 65.5574 103.85 65.2818C103.85 64.9873 103.912 64.7305 104.044 64.5237C104.175 64.3107 104.344 64.1415 104.544 64.01C104.751 63.8784 104.976 63.7844 105.227 63.7218C105.477 63.6591 105.727 63.6278 105.978 63.6278C106.397 63.6278 106.816 63.7281 107.229 63.9285C107.642 64.129 107.968 64.3733 108.193 64.6741L109.589 63.1391C109.119 62.7069 108.575 62.3811 107.943 62.1681C107.311 61.9488 106.691 61.8423 106.078 61.8423C105.533 61.8423 104.995 61.9112 104.469 62.0553C103.944 62.1994 103.468 62.4124 103.055 62.7069C102.642 62.995 102.304 63.3647 102.047 63.8095C101.791 64.2543 101.665 64.7806 101.665 65.3945C101.665 65.9647 101.759 66.4408 101.941 66.823C102.122 67.2051 102.36 67.5246 102.648 67.7878C102.936 68.0509 103.268 68.2576 103.631 68.4205C103.994 68.5772 104.357 68.715 104.72 68.8278C105.095 68.9531 105.452 69.0721 105.796 69.1849C106.134 69.2976 106.434 69.4355 106.685 69.5858C106.935 69.7425 107.135 69.9241 107.279 70.1309C107.43 70.3439 107.498 70.607 107.498 70.9265C107.498 71.2586 107.436 71.5342 107.304 71.7535C107.173 71.9728 107.004 72.1607 106.791 72.3111C106.578 72.4615 106.347 72.5617 106.084 72.6244C105.821 72.687 105.565 72.7183 105.314 72.7183C104.839 72.7183 104.35 72.5993 103.856 72.3612C103.361 72.1232 102.967 71.7974 102.673 71.3901L101.14 72.8248C101.615 73.3949 102.229 73.821 102.98 74.1154C103.731 74.4036 104.494 74.554 105.283 74.554C105.871 74.554 106.434 74.4725 106.973 74.3159C107.505 74.1593 107.974 73.9149 108.375 73.6017C108.775 73.2822 109.088 72.8812 109.332 72.3988C109.57 71.9164 109.689 71.3463 109.689 70.701C109.689 70.1121 109.576 69.6172 109.357 69.2162C109.132 68.7902 108.85 68.4644 108.5 68.2013Z" fill="#010101"/>
<path d="M124.096 63.5399C123.514 62.9949 122.825 62.5751 122.031 62.2744C121.236 61.9799 120.366 61.8296 119.421 61.8296C118.488 61.8296 117.625 61.9799 116.836 62.2744C116.047 62.5689 115.365 62.9886 114.789 63.5399C114.214 64.085 113.769 64.7491 113.444 65.5259C113.118 66.3028 112.956 67.1799 112.956 68.1447C112.956 69.0907 113.118 69.949 113.444 70.7322C113.769 71.509 114.22 72.1856 114.789 72.7495C115.365 73.3133 116.047 73.7519 116.836 74.0651C117.625 74.3784 118.488 74.535 119.421 74.535C120.366 74.535 121.236 74.3784 122.031 74.0651C122.825 73.7519 123.514 73.3133 124.096 72.7495C124.678 72.1856 125.129 71.5153 125.454 70.7322C125.78 69.9553 125.942 69.0907 125.942 68.1447C125.942 67.1799 125.78 66.3028 125.454 65.5259C125.129 64.7491 124.678 64.085 124.096 63.5399ZM123.301 69.9302C123.101 70.469 122.819 70.9389 122.45 71.3399C122.081 71.7408 121.643 72.0478 121.129 72.2733C120.616 72.4926 120.053 72.6054 119.44 72.6054C118.826 72.6054 118.263 72.4926 117.762 72.2733C117.255 72.0541 116.817 71.7408 116.448 71.3399C116.079 70.9389 115.797 70.4753 115.597 69.9302C115.396 69.3914 115.296 68.7963 115.296 68.1447C115.296 67.5182 115.396 66.9356 115.597 66.403C115.797 65.8705 116.079 65.4006 116.442 65.0059C116.805 64.605 117.243 64.2917 117.743 64.0662C118.25 63.8407 118.814 63.7279 119.44 63.7279C120.065 63.7279 120.635 63.8407 121.148 64.0662C121.661 64.2917 122.099 64.605 122.462 65.0059C122.825 65.4069 123.107 65.8705 123.307 66.403C123.508 66.9356 123.608 67.5182 123.608 68.1447C123.602 68.7963 123.501 69.3914 123.301 69.9302Z" fill="#010101"/>
<path d="M131.869 62.1367H129.723V74.2282H137.008V72.3111H131.869V62.1367Z" fill="#010101"/>
<path d="M159.77 68.8653C160.622 68.6711 161.298 68.3015 161.792 67.7502C162.286 67.1988 162.537 66.4846 162.537 65.6075C162.537 64.9685 162.412 64.4297 162.161 63.9849C161.911 63.5401 161.579 63.183 161.166 62.9073C160.753 62.6317 160.277 62.4374 159.739 62.3184C159.207 62.1994 158.656 62.1367 158.087 62.1367H153.894V74.2219H156.04V69.1034H157.611L160.409 74.2219H163L159.77 68.8653ZM158.713 67.2803C158.406 67.3241 158.099 67.3492 157.793 67.3492H156.034V63.9536H157.98C158.256 63.9536 158.537 63.9786 158.825 64.0225C159.113 64.0663 159.376 64.154 159.601 64.2793C159.827 64.4046 160.015 64.5738 160.165 64.7806C160.315 64.9936 160.384 65.263 160.384 65.5887C160.384 65.9521 160.302 66.2528 160.146 66.4846C159.989 66.7164 159.783 66.8981 159.539 67.0234C159.295 67.1487 159.019 67.2302 158.713 67.2803Z" fill="#010101"/>
<path d="M88.2283 22.4788H80.5239V39.9143H74.8723V22.4788H69.4336L74.0525 17.686H88.2345V22.4788H88.2283Z" fill="#010101"/>
<path d="M95.1378 17.686V22.4161H90.2061V17.686H95.1378ZM95.1378 24.1014V39.9143H90.2061V24.1014H95.1378Z" fill="#010101"/>
<path d="M62.2235 22.6041H66.7172L71.5301 17.5545H62.2235V5.27514H103.681V10.5565H109.457V0H109.27H103.681H62.2235H56.6032H56.4468V22.6041H56.8098H62.2235Z" fill="#CD242F"/>
<path d="M96.9276 17.2603V22.8737H103.912V45.9853H62.2235V35.1468H56.4468V51.2291H56.6408H62.2235H103.912H109.307H109.689V22.3099V19.4154V17.2603H96.9276Z" fill="#CD242F"/>
</svg>
