<?xml version="1.0" encoding="UTF-8" standalone="no"?> <svg xmlns:dc="http://purl.org/dc/elements/1.1/" xmlns:cc="http://creativecommons.org/ns#" xmlns:rdf="http://www.w3.org/1999/02/22-rdf-syntax-ns#" xmlns:svg="http://www.w3.org/2000/svg" xmlns="http://www.w3.org/2000/svg" xmlns:sodipodi="http://sodipodi.sourceforge.net/DTD/sodipodi-0.dtd" xmlns:inkscape="http://www.inkscape.org/namespaces/inkscape" version="1.1" id="svg2" xml:space="preserve" width="324.64001" height="83.653336" viewBox="0 0 324.64001 83.653336" sodipodi:docname="VF_Logo_CMYK.eps"><metadata id="metadata8"></metadata><defs id="defs6"></defs><g id="g10" inkscape:groupmode="layer" inkscape:label="ink_ext_XXXXXX" transform="matrix(1.3333333,0,0,-1.3333333,0,83.653333)"><g id="g12" transform="scale(0.1)"><path d="M 223.895,627.422 0,625.992 272.609,4.42188 H 495.922 L 223.895,627.422" style="fill:#f46a4a;fill-opacity:1;fill-rule:nonzero;stroke:none" id="path14"></path><path d="m 1156.66,625.484 -269.527,0.868 -163.664,-2.309 C 616.609,623.078 518.363,564.109 473.125,465.906 l -13.191,-28.66 C 426.801,365.324 426.082,282.395 457.969,209.898 L 519.617,69.6914 680.824,428.145 679.723,102.258 c -0.2,-54.5939 43.57,-98.89472 97.472,-98.67987 l 108.41,0.64062 1.043,426.82825 270.802,0.512 -0.79,193.925" style="fill:#f46a4a;fill-opacity:1;fill-rule:nonzero;stroke:none" id="path16"></path><path d="m 932.27,242.188 -4.067,-65.454 83.437,3.981 c 58.53,4.578 115.89,58.836 120.55,118.473 l 0.44,64.769 -85.39,-4.172 C 988.711,355.195 936.938,301.836 932.27,242.188" style="fill:#f46a4a;fill-opacity:1;fill-rule:nonzero;stroke:none" id="path18"></path><path d="m 1522.34,544.59 -78.16,-205.699 h -49.37 L 1315,544.59 h 57.6 l 46.07,-133.293 45.67,133.293 h 58" style="fill:#333b47;fill-opacity:1;fill-rule:nonzero;stroke:none" id="path20"></path><path d="m 1543.32,626.938 h 56.77 v -51.012 h -56.77 z m 2.05,-82.352 h 52.66 V 338.891 h -52.66 v 205.695" style="fill:#333b47;fill-opacity:1;fill-rule:nonzero;stroke:none" id="path22"></path><path d="m 1642.05,626.938 h 52.66 v -210.29 c 0,-22.222 6.58,-32.503 28.8,-32.503 v -45.254 c -55.55,0 -81.46,14.398 -81.46,65.828 v 222.219" style="fill:#333b47;fill-opacity:1;fill-rule:nonzero;stroke:none" id="path24"></path><path d="m 1755.17,626.938 h 52.66 v -210.29 c 0,-22.222 6.58,-32.503 28.8,-32.503 v -45.254 c -55.54,0 -81.46,14.398 -81.46,65.828 v 222.219" style="fill:#333b47;fill-opacity:1;fill-rule:nonzero;stroke:none" id="path26"></path><path d="m 1934.12,462.313 h 40.73 v 11.929 c 0,23.039 -6.99,30.449 -36.61,30.449 -20.17,0 -30.03,-2.886 -38.68,-16.464 l -37.02,25.925 c 15.22,25.086 38.26,34.141 80.63,34.141 53.07,0 83.11,-15.633 83.11,-74.469 V 338.895 h -51.43 v 18.101 c -8.23,-13.992 -20.57,-21.805 -44.43,-21.805 -42.79,0 -72.41,22.625 -72.41,64.582 0,43.614 32.91,62.54 76.11,62.54 m 40.73,-38.668 h -34.56 c -21.39,0 -30.85,-7.004 -30.85,-23.043 0,-15.633 11.93,-23.039 30.02,-23.039 23.87,0 35.39,10.289 35.39,38.257 v 7.825" style="fill:#333b47;fill-opacity:1;fill-rule:nonzero;stroke:none" id="path28"></path><path d="m 2182.18,544.59 h 52.25 V 343.012 c 0,-68.711 -38.68,-84.75 -90.51,-84.75 -38.26,0 -62.53,9.047 -80.63,37.023 l 35.38,25.504 c 9.04,-12.336 20.97,-18.508 40.31,-18.508 31.27,0 43.2,9.047 43.2,40.731 v 6.578 c -11.11,-9.465 -25.51,-14.402 -44.02,-14.402 -53.89,0 -81.46,38.261 -81.46,92.976 v 27.973 c 0,60.066 32.51,92.156 81.46,92.156 18.51,0 32.91,-4.941 44.02,-14.402 z m 0,-117.66 v 25.918 c 0,32.918 -10.69,51.011 -36.61,51.011 -25.93,0 -36.61,-18.093 -36.61,-51.011 v -21.395 c 0,-29.617 8.23,-51.832 36.61,-51.832 27.97,0 36.61,20.16 36.61,47.309" style="fill:#333b47;fill-opacity:1;fill-rule:nonzero;stroke:none" id="path30"></path><path d="m 2431.89,370.156 c -14.4,-25.093 -38.26,-34.961 -75.29,-34.961 -61.7,0 -91.32,39.903 -91.32,92.965 v 27.981 c 0,62.113 31.27,92.148 84.75,92.148 58,0 84.75,-33.726 84.75,-96.266 v -23.445 h -117.26 c 0.42,-28.387 9.46,-48.961 38.68,-48.961 21.8,0 28.79,6.59 36.61,17.692 z m -114.37,95.852 h 64.59 c -1.23,26.746 -11.93,37.855 -31.68,37.855 -20.98,0 -30.85,-14.398 -32.91,-37.855" style="fill:#333b47;fill-opacity:1;fill-rule:nonzero;stroke:none" id="path32"></path><path d="m 1347.09,209.406 v 11.11 c 0,53.066 20.57,67.05 70.35,67.05 h 15.22 v -46.07 h -9.88 c -19.32,0 -23.44,-8.644 -23.44,-29.215 v -2.875 h 33.32 v -44.433 h -33.32 V 3.71094 h -52.25 V 164.973 h -26.33 v 44.433 h 26.33" style="fill:#333b47;fill-opacity:1;fill-rule:nonzero;stroke:none" id="path34"></path><path d="m 1521.52,127.125 h 40.73 v 11.93 c 0,23.043 -7,30.449 -36.62,30.449 -20.16,0 -30.03,-2.883 -38.67,-16.465 l -37.03,25.926 c 15.22,25.086 38.26,34.144 80.63,34.144 53.08,0 83.11,-15.632 83.11,-74.468 V 3.71094 h -51.42 V 21.8125 c -8.23,-13.99609 -20.58,-21.80859375 -44.44,-21.80859375 -42.78,0 -72.4,22.62889375 -72.4,64.59379375 0,43.6053 32.91,62.5273 76.11,62.5273 m 40.73,-38.6641 h -34.56 c -21.39,0 -30.86,-6.9961 -30.86,-23.0429 0,-15.6367 11.93,-23.043 30.03,-23.043 23.86,0 35.39,10.293 35.39,38.2617 v 7.8242" style="fill:#333b47;fill-opacity:1;fill-rule:nonzero;stroke:none" id="path36"></path><path d="m 1762.99,152.223 c -5.34,7.808 -12.75,15.632 -25.91,15.632 -19.76,0 -32.91,-14.402 -32.91,-43.199 V 3.71094 h -52.66 V 209.406 h 51.43 v -17.273 c 6.99,10.281 20.56,20.976 44.83,20.976 24.69,0 43.2,-10.695 55.54,-32.089 l -40.32,-28.797" style="fill:#333b47;fill-opacity:1;fill-rule:nonzero;stroke:none" id="path38"></path><path d="m 1984.73,3.70703 h -52.25 V 124.25 c 0,32.906 -12.75,43.602 -31.27,43.602 -18.92,0 -32.49,-13.985 -32.49,-43.2 V 3.70703 h -52.66 V 209.402 h 51.42 v -17.273 c 7.81,10.695 22.63,20.976 45.66,20.976 24.68,0 44.84,-9.46 57.6,-27.562 13.17,16.047 33.32,27.562 59.24,27.562 44.84,0 71.17,-27.148 71.17,-80.628 V 3.70703 h -52.66 V 124.25 c 0,30.852 -10.69,43.602 -31.68,43.602 -18.92,0 -32.08,-13.985 -32.08,-43.2 V 3.70703" style="fill:#333b47;fill-opacity:1;fill-rule:nonzero;stroke:none" id="path40"></path><path d="m 2251.71,151.395 c -9.06,10.699 -18.1,16.457 -40.31,16.457 -13.58,0 -25.92,-4.11 -25.92,-16.039 0,-12.348 11.1,-16.872 32.91,-20.161 50.6,-7.82 76.11,-27.16 76.11,-67.8786 C 2294.5,24.2773 2266.93,0 2213.87,0 2171.9,0 2146.4,10.293 2128.7,34.1523 l 40.32,28.7891 c 8.23,-11.0976 18.51,-17.6875 44.02,-17.6875 18.1,0 29.21,6.1719 29.21,16.8672 0,12.75 -9.06,16.8711 -34.97,20.9883 -42.79,6.9922 -74.05,25.0856 -74.05,66.6366 0,39.094 27.97,63.359 79.4,63.359 33.73,0 61.71,-7.812 77.75,-34.144 l -38.67,-27.566" style="fill:#333b47;fill-opacity:1;fill-rule:nonzero;stroke:none" id="path42"></path><path d="m 2362.59,43.375 c 5.38,0 7.7,1.3867 7.7,5.3906 0,3.2305 -2.47,4.7735 -6.94,4.7735 h -6.46 V 43.375 Z m -14.94,-22.1719 v 40.1914 h 16.78 c 11.09,0 15.4,-6.4687 15.4,-12.4726 0,-6.0039 -3.08,-9.8555 -8.01,-11.8594 l 10.02,-15.8594 h -10.63 l -8.62,14.3203 h -5.7 V 21.2031 Z m 16.01,-9.8554 c 16.33,0 29.42,13.2461 29.42,29.4101 0,16.168 -13.09,29.4063 -29.42,29.4063 -16.17,0 -29.4,-13.2383 -29.4,-29.4063 0,-16.164 13.23,-29.4101 29.4,-29.4101 z m 0,69.1367 c 21.87,0 39.73,-17.8594 39.73,-39.7266 0,-21.8633 -17.86,-39.72655 -39.73,-39.72655 -21.7,0 -39.57,17.86325 -39.57,39.72655 0,21.8672 17.87,39.7266 39.57,39.7266" style="fill:#333b47;fill-opacity:1;fill-rule:nonzero;stroke:none" id="path44"></path></g></g></svg> 